<?xml version="1.0" encoding="utf-8"?>
<!-- Generator: Adobe Illustrator 18.0.0, SVG Export Plug-In . SVG Version: 6.00 Build 0)  -->
<!DOCTYPE svg PUBLIC "-//W3C//DTD SVG 1.1//EN" "http://www.w3.org/Graphics/SVG/1.1/DTD/svg11.dtd">
<svg version="1.1" id="Layer_1" xmlns="http://www.w3.org/2000/svg" xmlns:xlink="http://www.w3.org/1999/xlink" x="0px" y="0px"
	 viewBox="0 0 691.5 604" enable-background="new 0 0 691.5 604" xml:space="preserve">
<g>
	<path fill="#020015" d="M28.5,192.3l-13.4,6.8l-13.4,4.5L0,192.3l8.4-11.9h15.1L28.5,192.3z M664.2,367.5l-12.3,53.4l-30.4,54.6
		L600,507.4l-20.6,19.3L552.3,550L521,572.2l-37.8,14.2l-55.1,11.4l-59.2,6.3l-56.8-5.1l-51-6.8l-40.3-15.3l-75.7-31.3l-43.6-29
		L79.3,500l-28.8-24.4l-18.1-31.3L20,413.1l-6.6-33l6.6-24.4l-8.2-31.3l-9.9-23.3l11.5-27.8v-14.2L25,250v-22.2l10.7-14.2l18.1-14.8
		l12.3-30.1l23-27.3l25.5-19.3l18.1-22.1l22.2-2.3l25.5-14.2l18.1-5.7l23.9-8l23.9-13.1l26.3-6.8l25.5-17.6l23.9-19.9l8.2-5.7
		L350.9,0L383,4.5l29.6,13.6L438.2,38l9.9,30l-4.9,21L411,111.1l-42,13l-56.8,2.3L275,161l-23.9,35.2l-27.2,25.6L200,266.1
		l-6.6,43.7l-13.2,39.8l23,40.9l7.4,39.2l30.4,24.4l29.6,46.6l22.2,3.4l11.5,8.5l27.1,4.5l37,3.4l43.6-8l42.7-9.6l26.3-14.8
		l1.6-40.9l18.9-7.9l-1.6-32.9l11.5-21.6l4.9-23.3l10.7-19.9l-6.5-19.9l-4.1-30.1l-16.3-21l-22-10.8l-16.3-23.3l-28.6-26.7l4.9-22.1
		l9.9-19.3L467,160h27.1l35.3,15.3l33.7,12.5l16.4,22.2l22.2,14.2l6.6,23.3l13.1,23.3l10.7,18.8l18.1,18.2l4.9,30.7L664.2,367.5z
		 M300.5,18.4l-15,8.7l-5-8.7l5-11.6l15,2.3V18.4z"/>
</g>
<g>
	<polygon fill="#336699" points="682.5,338.5 677.5,307.8 659.5,289.6 648.8,270.8 635.6,247.5 629.1,224.2 606.9,210 590.5,187.8 
		556.8,175.3 521.4,160 494.3,160 475.4,168.5 465.6,187.8 460.6,209.9 489.2,236.7 505.5,259.9 527.5,270.7 543.9,291.7 
		547.9,321.8 554.5,341.7 543.8,361.6 538.9,384.9 527.3,406.5 529,439.4 510.1,447.4 508.4,488.3 482.1,503 439.4,512.7 
		395.8,520.6 358.9,517.2 331.7,512.7 320.2,504.1 298,500.7 268.4,454.2 238,429.7 230.6,390.5 207.6,349.6 220.8,309.9 
		227.4,266.1 251.3,221.8 278.5,196.3 302.4,161 339.5,126.4 396.3,124.1 438.3,111.1 470.5,89 475.4,68 465.5,38 440,18.1 
		410.4,4.5 378.3,0 357.7,6.8 349.5,12.5 325.6,32.4 300.1,50 273.8,56.8 249.9,69.9 226,77.8 207.9,83.5 182.4,97.7 160.2,100 
		142,122.2 116.5,141.5 93.5,168.8 81.1,198.9 63,213.6 52.3,227.9 52.3,250 40.8,259.1 40.8,273.3 29.3,301.2 39.2,324.5 
		47.4,355.7 40.8,380.1 47.4,413.1 59.7,444.3 77.8,475.6 106.6,500 128.8,516.5 172.4,545.5 248.1,576.7 288.4,592.1 339.4,598.9 
		396.2,604 455.4,597.8 510.5,586.4 548.4,572.2 579.6,550 606.8,526.7 627.4,507.4 648.7,475.5 679.2,420.9 691.5,367.5 	"/>
</g>
</svg>
