<?xml version="1.0" encoding="utf-8"?>
<!-- Generator: Adobe Illustrator 18.0.0, SVG Export Plug-In . SVG Version: 6.00 Build 0)  -->
<!DOCTYPE svg PUBLIC "-//W3C//DTD SVG 1.1//EN" "http://www.w3.org/Graphics/SVG/1.1/DTD/svg11.dtd">
<svg version="1.1" id="Layer_1" xmlns="http://www.w3.org/2000/svg" xmlns:xlink="http://www.w3.org/1999/xlink" x="0px" y="0px"
	 viewBox="0 0 22 22" enable-background="new 0 0 22 22" xml:space="preserve">
<rect x="0.5" y="0.5" fill="#FFFFFF" stroke="#EC2227" stroke-miterlimit="10" width="21.1" height="21"/>
<path fill="#EC2227" d="M14.3,4.7c0.2,1.6-1.7,3-1.7,3S12,6.4,12.4,4.9C12.9,3.5,12,2.1,12,2.1S14.1,3.2,14.3,4.7z"/>
<path fill="#EC2227" d="M15.5,5.9c-1.6,0.4-2.4,2.4-2.4,2.4s1.5,0.1,2.8-0.8c1.2-0.8,2.9-0.5,2.9-0.5S17,5.5,15.5,5.9z"/>
<path fill="#EC2227" d="M12.1,7.7c0.2,1.6-1.7,3-1.7,3s-0.6-1.3-0.1-2.8C10.7,6.4,9.8,5,9.8,5S11.9,6.1,12.1,7.7z"/>
<path fill="#EC2227" d="M13.3,8.8c-1.6,0.4-2.4,2.4-2.4,2.4s1.5,0.1,2.8-0.8c1.2-0.8,2.9-0.5,2.9-0.5S14.9,8.4,13.3,8.8z"/>
<path fill="#EC2227" d="M10,10.6c0.2,1.6-1.7,3-1.7,3s-0.6-1.3-0.1-2.8C8.5,9.4,7.6,8,7.6,8S9.8,9,10,10.6z"/>
<path fill="#EC2227" d="M11.1,11.7c-1.6,0.4-2.4,2.4-2.4,2.4s1.5,0.1,2.8-0.8c1.2-0.8,2.9-0.5,2.9-0.5S12.7,11.3,11.1,11.7z"/>
<path fill="#EC2227" d="M7.8,13.5c0.2,1.6-1.7,3-1.7,3s-0.6-1.3-0.1-2.8c0.4-1.4-0.5-2.8-0.5-2.8S7.6,12,7.8,13.5z"/>
<path fill="#EC2227" d="M8.7,14.7c-1.6,0.1-2.8,1.9-2.8,1.9s1.5,0.4,2.9-0.3c1.4-0.6,2.9,0,2.9,0S10.3,14.6,8.7,14.7z"/>
<polygon fill="#EC2227" points="1.4,21.2 6.6,16.1 6.4,15.8 1.7,20.1 "/>
<path fill="#EC2227" d="M18.4,1c0,0-3.4,1.8-3.2,3c0,0.3,0.2,0.6,0.5,0.8c0.3,0.2,0.7,0.2,0.9,0.2C17.7,4.8,18.4,1,18.4,1z"/>
</svg>
