<?xml version="1.0" encoding="utf-8"?>
<!-- Generator: Adobe Illustrator 18.0.0, SVG Export Plug-In . SVG Version: 6.00 Build 0)  -->
<!DOCTYPE svg PUBLIC "-//W3C//DTD SVG 1.1//EN" "http://www.w3.org/Graphics/SVG/1.1/DTD/svg11.dtd">
<svg version="1.1" id="Layer_1" xmlns="http://www.w3.org/2000/svg" xmlns:xlink="http://www.w3.org/1999/xlink" x="0px" y="0px"
	 viewBox="0 0 22 22" enable-background="new 0 0 22 22" xml:space="preserve">
<rect x="0.5" y="0.5" fill="#FFFFFF" stroke="#EC2227" stroke-miterlimit="10" width="21.1" height="21"/>
<polygon fill="#ED1C24" stroke="#ED1C24" stroke-miterlimit="10" points="13.9,20.1 8.8,20.1 8.8,9.5 13.9,12.4 "/>
<rect x="2" y="6" fill="#ED1C24" stroke="#ED1C24" stroke-miterlimit="10" width="5.4" height="14.1"/>
<rect x="3.2" y="3.7" fill="#ED1C24" stroke="#ED1C24" stroke-miterlimit="10" width="2.6" height="14.5"/>
<rect x="4.2" y="1.9" fill="#ED1C24" stroke="#ED1C24" stroke-miterlimit="10" width="0.4" height="14.5"/>
<rect x="10.2" y="3.7" fill="#ED1C24" stroke="#ED1C24" stroke-miterlimit="10" width="2.6" height="14.5"/>
<polygon fill="#ED1C24" stroke="#ED1C24" stroke-miterlimit="10" points="16.4,20.1 7.4,20.1 7.3,13.1 16.4,15 "/>
<path fill="#ED1C24" stroke="#ED1C24" stroke-miterlimit="10" d="M20.1,9.7v10.4h-4.9V9.7c0-0.5,0.9-1,2-1h0.8
	C19.2,8.7,20.1,9.1,20.1,9.7z"/>
<rect x="2" y="6" fill="#ED1C24" stroke="#ED1C24" stroke-miterlimit="10" width="5.4" height="14.1"/>
<rect x="3.2" y="3.7" fill="#ED1C24" stroke="#ED1C24" stroke-miterlimit="10" width="2.6" height="14.5"/>
<rect x="4.2" y="1.9" fill="#ED1C24" stroke="#ED1C24" stroke-miterlimit="10" width="0.4" height="14.5"/>
<rect x="10.2" y="3.7" fill="#ED1C24" stroke="#ED1C24" stroke-miterlimit="10" width="2.6" height="14.5"/>
</svg>
