<?xml version="1.0" encoding="utf-8"?>
<!-- Generator: Adobe Illustrator 18.0.0, SVG Export Plug-In . SVG Version: 6.00 Build 0)  -->
<!DOCTYPE svg PUBLIC "-//W3C//DTD SVG 1.1//EN" "http://www.w3.org/Graphics/SVG/1.1/DTD/svg11.dtd">
<svg version="1.1" id="Layer_1" xmlns="http://www.w3.org/2000/svg" xmlns:xlink="http://www.w3.org/1999/xlink" x="0px" y="0px"
	 viewBox="0 0 22 22" enable-background="new 0 0 22 22" xml:space="preserve">
<rect x="0.5" y="0.5" fill="#FFFFFF" stroke="#ED1C24" stroke-miterlimit="10" width="21.1" height="21"/>
<path fill="#EC2227" d="M18.2,11.6c0,2.9-3.8,5.3-8.5,5.3s-8.5-5.3-8.5-5.3S5,6.3,9.7,6.3S18.2,8.6,18.2,11.6z"/>
<path fill="#EC2227" d="M20,18.1L20,18.1l-5.3-6.3l0,0L20,5.3c0,0,0-0.1,0,0.4V18.1z"/>
<path fill="#FFFFFF" d="M6.5,10c0.5,1.1-0.4,2.1-1.3,1.6c-0.1-0.1-0.3-0.2-0.3-0.4c-0.5-1.1,0.4-2.1,1.3-1.6C6.3,9.7,6.4,9.8,6.5,10
	z"/>
<ellipse fill="#FFFFFF" cx="5.7" cy="10.6" rx="1" ry="1"/>
</svg>
