<?xml version="1.0" encoding="utf-8"?>
<!-- Generator: Adobe Illustrator 18.0.0, SVG Export Plug-In . SVG Version: 6.00 Build 0)  -->
<!DOCTYPE svg PUBLIC "-//W3C//DTD SVG 1.1//EN" "http://www.w3.org/Graphics/SVG/1.1/DTD/svg11.dtd">
<svg version="1.1" id="Layer_1" xmlns="http://www.w3.org/2000/svg" xmlns:xlink="http://www.w3.org/1999/xlink" x="0px" y="0px"
	 viewBox="0 0 22 22" enable-background="new 0 0 22 22" xml:space="preserve">
<rect x="0.5" y="0.5" fill="#FFFFFF" stroke="#ED1C24" stroke-miterlimit="10" width="21.1" height="21"/>
<g id="XMLID_5_">
	<g>
		<ellipse fill="#FFFFFF" cx="16.1" cy="11.9" rx="0.7" ry="0.6"/>
		<path fill="#ED1C24" d="M15.4,11.9c0,0.3,0.3,0.6,0.7,0.6c0.4,0,0.7-0.3,0.7-0.6c0-0.3-0.3-0.6-0.7-0.6
			C15.7,11.2,15.4,11.5,15.4,11.9z M11.3,7.3c-0.4-0.6-1-0.8-1.5-0.8c-1.1,0.1-3.6,1.8-1.4,3.8c2.1,1.8,1.5,4.7,2.6,4.7
			c0.2,0,0.3-0.1,0.5-0.2c0.2-0.1,0.4-0.4,0.5-0.8c0,0,0,0,0,0c0,0,0-0.1,0-0.1c0,0,0,0,0,0c0.3-1,0.7-2.4,2.1-3.2
			c2.4-1.6,0-3.7-1.1-3.9C12.4,6.4,11.8,6.6,11.3,7.3z M5.8,11.8c0,0.3,0.3,0.6,0.7,0.6s0.7-0.3,0.7-0.6c0-0.3-0.3-0.6-0.7-0.6
			S5.8,11.5,5.8,11.8z M15.8,16.6c0-0.3-0.3-0.6-0.7-0.8c0,0,0,0,0,0c-0.4-0.3-0.9-0.5-1.5-0.5c0,0-0.1,0-0.1,0h-0.9
			c-0.4,0.1-0.8,0.2-1.1,0.4c-0.3-0.2-0.7-0.4-1.1-0.4H9.3c-0.7,0-1.4,0.3-1.8,0.7c-0.1,0.1-0.1,0.1-0.2,0.2c0,0,0,0,0,0.1
			c0,0-0.1,0.1-0.1,0.1C7.1,16.5,7,16.6,7,16.7c-2.8-1.5-4.7-4-3.5-5.3C4.8,10,5.7,8.2,7.1,6.9C6.5,7,5.9,7.2,5.5,7.3
			c-0.1,0-0.3,0.1-0.7,0.1c-0.7,0-1.5,0-2-0.5C2.2,6.2,2.2,5.1,2.3,4.3c0-1,0.3-1.7,0.5-2.1c0.4,0.9,1,2.6,2.4,3.1
			c1.3,0.5,2.5,0.6,3.5,0.5c0.7-0.3,1.5-0.5,2.5-0.5c0.8,0,1.5,0.1,2.1,0.3c1,0,2.4-0.1,3.7-0.6c1.3-0.6,1.6-2,1.8-2.8
			c0.3,0.3,0.7,0.9,0.9,1.8c0.2,0.6,0.4,1.6-0.1,2.2c-0.4,0.4-1.2,0.5-1.9,0.5c-0.3,0-0.6,0-0.7,0c-0.6,0-1.4-0.2-2.3-0.3
			c1.8,1.3,2.9,3.5,4.5,5.3c1.2,1.4-0.8,3.7-3.5,5.1C15.8,16.7,15.8,16.7,15.8,16.6C15.8,16.7,15.8,16.6,15.8,16.6
			C15.8,16.6,15.8,16.6,15.8,16.6z"/>
		<path fill="#ED1C24" d="M15.7,16.8C15.7,16.8,15.7,16.8,15.7,16.8C15.7,16.8,15.7,16.8,15.7,16.8C15.7,16.8,15.7,16.8,15.7,16.8z"
			/>
		<path fill="#ED1C24" d="M13.4,15.4C13.4,15.4,13.5,15.4,13.4,15.4C13.5,15.4,13.5,15.4,13.4,15.4C13.5,15.4,13.4,15.4,13.4,15.4
			l-0.9,0c0,0,0,0,0,0H13.4z"/>
		<path fill="#ED1C24" d="M13.3,15.4c0.1,0,0.1,0,0.2,0C13.5,15.4,13.4,15.4,13.3,15.4l-0.8,0C12.7,15.4,13,15.4,13.3,15.4z"/>
		<path fill="#ED1C24" d="M13.3,15.4c-0.3,0-0.6,0-0.8,0h0C12.7,15.4,13,15.4,13.3,15.4c0.1,0,0.1,0,0.2,0c0,0,0,0,0,0
			C13.4,15.4,13.4,15.4,13.3,15.4z"/>
		<path fill="#FFFFFF" d="M12,13.8c0,0,0-0.1,0-0.1C12,13.7,12,13.8,12,13.8z"/>
		<path fill="#FFFFFF" d="M11.5,14.7c0.2-0.2,0.4-0.5,0.5-0.8C11.9,14.3,11.7,14.6,11.5,14.7z"/>
		<path fill="#FFFFFF" d="M11,14.9c-1.1,0.1-0.4-2.9-2.6-4.7C6.2,8.3,8.7,6.5,9.8,6.4c0.5,0,1.1,0.2,1.5,0.8
			c0.5-0.7,1.1-0.9,1.7-0.8c1.1,0.2,3.5,2.3,1.1,3.9c-1.3,0.9-1.7,2.3-2.1,3.2c0,0,0,0,0,0c0,0,0,0.1,0,0.1c0,0,0,0,0,0
			c-0.1,0.4-0.3,0.7-0.5,0.8C11.3,14.8,11.2,14.9,11,14.9z"/>
		<path fill="#ED1C24" d="M9.7,15.4c0.2,0,0.4,0,0.6,0h0C10.1,15.4,9.9,15.4,9.7,15.4c-0.1,0-0.3,0-0.4,0h0
			C9.4,15.4,9.5,15.4,9.7,15.4z"/>
		<polygon fill="#ED1C24" points="10.3,15.4 9.3,15.4 9.3,15.4 10.3,15.4 		"/>
		<path fill="#ED1C24" d="M9.3,15.4c0.1,0,0.3,0,0.4,0c0.2,0,0.4,0,0.6,0H9.3z"/>
		<path fill="#ED1C24" d="M10.3,15.4C10.3,15.4,10.3,15.4,10.3,15.4L10.3,15.4c-0.2,0-0.4,0-0.6,0c-0.1,0-0.3,0-0.4,0h0c0,0,0,0,0,0
			H10.3z M12.3,15.5c-0.3,0-0.6,0.2-0.9,0.3c-0.3-0.2-0.6-0.3-0.9-0.3H9.7c-0.6,0-1.1,0.2-1.5,0.6c-0.1,0.1-0.1,0.1-0.2,0.2
			c0,0,0,0,0,0c0,0,0,0,0,0c0,0.1-0.1,0.1-0.1,0.2c-0.1,0.2-0.2,0.4-0.2,0.6v0.5c0,0.9,0.9,1.6,2,1.6h3.5c1.1,0,2-0.7,2-1.6v-0.5
			c0-0.2,0-0.3-0.1-0.5c0,0,0,0,0,0c0,0,0,0,0-0.1c0,0,0,0,0,0c0-0.2-0.2-0.5-0.6-0.6c0,0,0,0,0,0c-0.3-0.2-0.8-0.4-1.2-0.4
			c0,0-0.1,0-0.1,0H12.3z M7.4,16.1C7.4,16.2,7.3,16.2,7.4,16.1C7.3,16.2,7.3,16.2,7.4,16.1c0,0,0.1-0.1,0.1-0.2
			c0.4-0.4,1.1-0.7,1.8-0.7h1.1c0.4,0.1,0.8,0.2,1.1,0.4c0.3-0.2,0.7-0.4,1.1-0.4h0.9c0,0,0.1,0,0.1,0c0.6,0,1.1,0.2,1.5,0.5
			c0,0,0,0,0,0c0.4,0.2,0.7,0.5,0.7,0.8c0,0,0,0,0,0c0,0,0,0,0,0.1c0,0,0,0,0,0c0.1,0.2,0.1,0.4,0.1,0.7v0.7c0,1.2-1.1,2.1-2.4,2.1
			H9.3c-1.3,0-2.4-1-2.4-2.1v-0.7c0-0.3,0.1-0.6,0.2-0.8c0-0.1,0.1-0.2,0.1-0.3C7.3,16.2,7.3,16.2,7.4,16.1z M13.4,15.4
			C13.4,15.4,13.5,15.4,13.4,15.4C13.5,15.4,13.5,15.4,13.4,15.4C13.5,15.4,13.5,15.4,13.4,15.4C13.4,15.4,13.4,15.4,13.4,15.4
			c-0.4-0.1-0.7,0-0.9,0h0c0,0,0,0,0,0H13.4z M15.7,16.8C15.7,16.8,15.7,16.8,15.7,16.8C15.7,16.8,15.7,16.8,15.7,16.8
			C15.7,16.8,15.7,16.8,15.7,16.8z"/>
		<path fill="#ED1C24" d="M7.4,16.1c0,0-0.1,0.1-0.1,0.1C7.3,16.3,7.3,16.2,7.4,16.1C7.3,16.2,7.4,16.2,7.4,16.1z"/>
		<path fill="#FFFFFF" d="M7.3,16.3C7.2,16.3,7.2,16.3,7.3,16.3C7.2,16.3,7.3,16.3,7.3,16.3C7.3,16.2,7.3,16.3,7.3,16.3z"/>
		<ellipse fill="#FFFFFF" cx="6.5" cy="11.8" rx="0.7" ry="0.6"/>
	</g>
	<g>
		<path fill="none" stroke="#ED1C24" stroke-width="0.5" stroke-linecap="round" stroke-linejoin="round" d="M15.1,17.1v0.5
			c0,0.9-0.9,1.6-2,1.6H9.7c-1.1,0-2-0.7-2-1.6v-0.5c0-0.2,0.1-0.4,0.2-0.6c0-0.1,0.1-0.1,0.1-0.2c0,0,0,0,0,0c0,0,0,0,0,0
			c0-0.1,0.1-0.1,0.2-0.2c0.4-0.3,0.9-0.6,1.5-0.6h0.9c0.3,0,0.6,0.2,0.9,0.3c0.3-0.2,0.6-0.3,0.9-0.3h0.8c0,0,0.1,0,0.1,0
			c0.5,0,0.9,0.2,1.2,0.4c0,0,0,0,0,0c0.3,0.2,0.6,0.4,0.6,0.6c0,0,0,0,0,0c0,0,0,0,0,0.1c0,0,0,0,0,0
			C15.1,16.8,15.1,16.9,15.1,17.1z"/>
		<path fill="none" stroke="#ED1C24" stroke-miterlimit="10" d="M15.8,16.7c2.8-1.4,4.7-3.7,3.5-5.1c-1.6-1.8-2.7-4-4.5-5.3
			c0.9,0.1,1.7,0.3,2.3,0.3c0.1,0,0.3,0,0.7,0c0.7,0,1.5-0.1,1.9-0.5C20.2,5.6,20,4.6,19.8,4c-0.2-0.8-0.6-1.4-0.9-1.8
			C18.6,3,18.4,4.4,17.1,5c-1.3,0.5-2.6,0.6-3.7,0.6c-0.6-0.2-1.3-0.3-2.1-0.3c-1,0-1.8,0.2-2.5,0.5c-1,0.1-2.3,0-3.5-0.5
			c-1.4-0.6-2-2.2-2.4-3.1C2.6,2.6,2.3,3.3,2.3,4.3c0,0.8-0.1,1.9,0.5,2.5c0.5,0.5,1.3,0.5,2,0.5c0.3,0,0.6,0,0.7-0.1
			c0.4-0.1,1-0.2,1.6-0.4C5.7,8.2,4.8,10,3.5,11.4c-1.2,1.3,0.8,3.8,3.5,5.3c0.1-0.1,0.1-0.2,0.2-0.4"/>
		<line fill="none" stroke="#ED1C24" stroke-miterlimit="10" x1="12" y1="13.8" x2="12" y2="13.8"/>
		<path fill="none" stroke="#ED1C24" stroke-miterlimit="10" d="M11.5,14.7c-0.1,0.1-0.3,0.2-0.5,0.2c-1.1,0.1-0.4-2.9-2.6-4.7
			C6.2,8.3,8.7,6.5,9.8,6.4c0.5,0,1.1,0.2,1.5,0.8c0.5-0.7,1.1-0.9,1.7-0.8c1.1,0.2,3.5,2.3,1.1,3.9c-1.3,0.9-1.7,2.3-2.1,3.2
			c0,0,0,0,0,0"/>
		<path fill="none" stroke="#ED1C24" stroke-miterlimit="10" d="M12.1,13.7c0,0,0,0.1,0,0.1C12,13.8,12,13.7,12.1,13.7z"/>
		<path fill="none" stroke="#ED1C24" stroke-miterlimit="10" d="M12,13.8c-0.2,0.4-0.3,0.7-0.5,0.8C11.7,14.5,11.9,14.2,12,13.8z"/>
		<path fill="none" stroke="#ED1C24" stroke-miterlimit="10" d="M7.3,16.3C7.2,16.3,7.2,16.3,7.3,16.3C7.2,16.3,7.3,16.3,7.3,16.3"
			/>
		<path fill="none" stroke="#ED1C24" stroke-miterlimit="10" d="M15.8,16.7c0.1,0.2,0.1,0.4,0.1,0.7v0.7c0,1.2-1.1,2.1-2.4,2.1H9.3
			c-1.3,0-2.4-1-2.4-2.1v-0.7c0-0.3,0.1-0.6,0.2-0.8c0-0.1,0.1-0.2,0.1-0.3c0,0,0,0,0-0.1c0,0,0,0,0-0.1C7.4,16.1,7.5,16,7.5,16
			c0.4-0.4,1.1-0.7,1.8-0.7h1.1c0.4,0.1,0.8,0.2,1.1,0.4c0.3-0.2,0.7-0.4,1.1-0.4h0.9c0,0,0.1,0,0.1,0c0.6,0,1.1,0.2,1.5,0.5
			c0,0,0,0,0,0c0.4,0.2,0.7,0.5,0.7,0.8C15.8,16.6,15.8,16.6,15.8,16.7C15.8,16.6,15.8,16.7,15.8,16.7
			C15.8,16.7,15.8,16.7,15.8,16.7z"/>
		<ellipse fill="none" stroke="#ED1C24" stroke-miterlimit="10" cx="6.5" cy="11.8" rx="0.7" ry="0.6"/>
		<ellipse fill="none" stroke="#ED1C24" stroke-miterlimit="10" cx="16.1" cy="11.9" rx="0.7" ry="0.6"/>
	</g>
</g>
<path fill="#ED1C24" stroke="#ED1C24" stroke-miterlimit="10" d="M10.5,16.3c0.3,0.6-0.3,1.1-0.9,0.8c-0.1-0.1-0.2-0.1-0.3-0.3
	C9,16.3,9.6,15.8,10.2,16C10.3,16.1,10.4,16.2,10.5,16.3z"/>
<path fill="#ED1C24" stroke="#ED1C24" stroke-miterlimit="10" d="M13.4,16.2c0.3,0.6-0.3,1.1-0.9,0.8c-0.1-0.1-0.2-0.1-0.3-0.3
	c-0.3-0.6,0.3-1.1,0.9-0.8C13.2,16,13.3,16.1,13.4,16.2z"/>
<rect x="5.6" y="10.7" fill="#ED1C24" stroke="#ED1C24" stroke-miterlimit="10" width="2" height="2.4"/>
<rect x="14.7" y="10.7" fill="#ED1C24" stroke="#ED1C24" stroke-miterlimit="10" width="2.2" height="2.2"/>
<rect x="7.5" y="15.2" fill="#ED1C24" stroke="#ED1C24" stroke-miterlimit="10" width="7.6" height="4"/>
<rect x="7" y="15.3" fill="#ED1C24" stroke="#ED1C24" stroke-miterlimit="10" width="0.8" height="1.2"/>
<path fill="#FFFFFF" stroke="#FFFFFF" stroke-miterlimit="10" d="M8.2,12c0,0.9-0.7-0.1-1.6-0.1S5,12.8,5,12c0-0.9,0.7-1.5,1.6-1.5
	S8.2,11.1,8.2,12z"/>
<path fill="#FFFFFF" stroke="#FFFFFF" stroke-miterlimit="10" d="M17.3,12c0,0.9-0.7-0.1-1.6-0.1S14,12.8,14,12
	c0-0.9,0.7-1.5,1.6-1.5S17.3,11.1,17.3,12z"/>
<path fill="#FFFFFF" stroke="#FFFFFF" stroke-miterlimit="10" d="M13.4,19.2H9.3c-0.7,0-1.2-0.5-1.2-1.2v-0.8c0-0.7,0.5-1.2,1.2-1.2
	h4.1c0.7,0,1.2,0.5,1.2,1.2V18C14.6,18.7,14.1,19.2,13.4,19.2z"/>
<path fill="#ED1C24" stroke="#ED1C24" stroke-miterlimit="10" d="M10.5,17.3c0.4,0.6-0.4,1.3-1.1,0.9c-0.1,0-0.2-0.1-0.3-0.2
	c-0.4-0.6,0.4-1.3,1.1-0.9C10.3,17.1,10.4,17.2,10.5,17.3z"/>
<path fill="#ED1C24" stroke="#ED1C24" stroke-miterlimit="10" d="M13.7,17.3c0.4,0.6-0.4,1.3-1.1,0.9c-0.1,0-0.2-0.1-0.3-0.2
	c-0.4-0.6,0.4-1.3,1.1-0.9C13.5,17.1,13.6,17.2,13.7,17.3z"/>
</svg>
