<?xml version="1.0" encoding="utf-8"?>
<!-- Generator: Adobe Illustrator 18.0.0, SVG Export Plug-In . SVG Version: 6.00 Build 0)  -->
<!DOCTYPE svg PUBLIC "-//W3C//DTD SVG 1.1//EN" "http://www.w3.org/Graphics/SVG/1.1/DTD/svg11.dtd">
<svg version="1.1" id="Layer_1" xmlns="http://www.w3.org/2000/svg" xmlns:xlink="http://www.w3.org/1999/xlink" x="0px" y="0px"
	 viewBox="0 0 22 22" enable-background="new 0 0 22 22" xml:space="preserve">
<rect x="0.5" y="0.5" fill="#FFFFFF" stroke="#ED1C24" stroke-miterlimit="10" width="21.1" height="21"/>
<path fill="#FFFFFF" d="M7.2,10.1c0.4,1-0.4,2-1.2,1.5c-0.1-0.1-0.3-0.2-0.3-0.4c-0.4-1,0.4-2,1.2-1.5C7,9.8,7.1,9.9,7.2,10.1z"/>
<ellipse fill="#FFFFFF" cx="6.4" cy="10.6" rx="1" ry="1"/>
<polygon fill="#ED1C24" stroke="#ED1C24" stroke-miterlimit="10" points="18.9,19.9 19.7,18 7,5.5 6.2,7.4 "/>
<polygon fill="#ED1C24" points="4.5,10.6 10.8,3.5 8.9,1.1 1,10.6 "/>
<polygon fill="#ED1C24" stroke="#ED1C24" stroke-miterlimit="10" points="3.4,20.1 2.6,18.2 16.7,5.5 17.5,7.5 "/>
<path fill="#ED1C24" stroke="#ED1C24" stroke-miterlimit="10" d="M19.5,12.6c-1.2,1.2-0.3-2.8-2-5.9S12,3.8,13.1,2.5
	s3.9,0.1,5.6,3.2S20.7,11.4,19.5,12.6z"/>
</svg>
