<?xml version="1.0" encoding="utf-8"?>
<!-- Generator: Adobe Illustrator 18.0.0, SVG Export Plug-In . SVG Version: 6.00 Build 0)  -->
<!DOCTYPE svg PUBLIC "-//W3C//DTD SVG 1.1//EN" "http://www.w3.org/Graphics/SVG/1.1/DTD/svg11.dtd">
<svg version="1.1" id="Layer_1" xmlns="http://www.w3.org/2000/svg" xmlns:xlink="http://www.w3.org/1999/xlink" x="0px" y="0px"
	 viewBox="0 0 22 22" enable-background="new 0 0 22 22" xml:space="preserve">
<rect x="0.5" y="0.5" fill="#FFFFFF" stroke="#272361" stroke-miterlimit="10" width="21.1" height="21"/>
<path fill="#FFFFFF" d="M6.5,9.5c0.5,1.1-0.4,2.1-1.3,1.6c-0.1-0.1-0.3-0.2-0.3-0.4C4.4,9.7,5.3,8.6,6.2,9.2
	C6.3,9.3,6.4,9.4,6.5,9.5z"/>
<ellipse fill="#FFFFFF" cx="5.7" cy="10.1" rx="1" ry="1"/>
<path fill="#272361" d="M14.5,8.3H9.6c0,0-0.5-1.9,0-2.3c0.9-0.7,4.1-0.8,4.9,0C14.9,6.4,14.5,8.3,14.5,8.3z"/>
<path fill="#272361" d="M12.3,7.2L12.3,7.2C11.5,7.2,11,6.6,11,6V4.2C11,3.5,11.5,3,12.2,3h0.1c0.7,0,1.2,0.5,1.2,1.2V6
	C13.5,6.6,12.9,7.2,12.3,7.2z"/>
<rect x="8.5" y="2.3" fill="#272361" width="7" height="1.4"/>
<ellipse fill="#272361" cx="7.6" cy="3" rx="1.8" ry="1.7"/>
<ellipse fill="#272361" cx="16.5" cy="3" rx="1.8" ry="1.7"/>
<path fill="#272361" stroke="#272361" stroke-width="0.25" stroke-miterlimit="10" d="M1.6,11.1L1.6,11.1c0-1.6,1.3-2.8,2.8-2.8H20
	c0.2,0,0.4,0.2,0.4,0.4v2.4c0,0.2-0.2,0.4-0.4,0.4H2C1.8,11.5,1.6,11.3,1.6,11.1z"/>
<path fill="#272361" stroke="#272361" stroke-width="0.25" stroke-miterlimit="10" d="M4.1,15.1H2.6c-0.6,0-1-0.5-1-1v-2.7
	c0-0.6,0.5-1,1-1h1.5c0.6,0,1,0.5,1,1v2.7C5.1,14.7,4.7,15.1,4.1,15.1z"/>
<path fill="#272361" stroke="#272361" stroke-width="0.25" stroke-miterlimit="10" d="M4.2,18.8c0.4,0.7-0.4,1.5-0.8,1.5
	s-1.3-0.8-0.8-1.5C3,18,3.3,17.2,3.3,17.2S3.8,18,4.2,18.8z"/>
</svg>
