<?xml version="1.0" encoding="utf-8"?>
<!-- Generator: Adobe Illustrator 18.0.0, SVG Export Plug-In . SVG Version: 6.00 Build 0)  -->
<!DOCTYPE svg PUBLIC "-//W3C//DTD SVG 1.1//EN" "http://www.w3.org/Graphics/SVG/1.1/DTD/svg11.dtd">
<svg version="1.1" id="Layer_1" xmlns="http://www.w3.org/2000/svg" xmlns:xlink="http://www.w3.org/1999/xlink" x="0px" y="0px"
	 viewBox="0 0 22 22" enable-background="new 0 0 22 22" xml:space="preserve">
<rect x="0.5" y="0.5" fill="#FFFFFF" stroke="#272361" stroke-miterlimit="10" width="21.1" height="21"/>
<path fill="#FFFFFF" d="M6.5,9.5c0.5,1.1-0.4,2.1-1.3,1.6c-0.1-0.1-0.3-0.2-0.3-0.4C4.4,9.7,5.3,8.6,6.2,9.2
	C6.3,9.3,6.4,9.4,6.5,9.5z"/>
<ellipse fill="#FFFFFF" cx="5.7" cy="10.1" rx="1" ry="1"/>
<g>
	<path fill="#FFFFFF" d="M1.3,5.5c0.9,0,0.9,1,1.7,1c0.9,0,0.9-1,1.7-1c0.9,0,0.9,1,1.8,1s0.9-1,1.8-1"/>
	<path fill="none" stroke="#272361" stroke-miterlimit="10" d="M1.3,5.5c0.9,0,0.9,1,1.7,1c0.9,0,0.9-1,1.7-1c0.9,0,0.9,1,1.8,1
		s0.9-1,1.8-1"/>
</g>
<g>
	<path fill="#FFFFFF" d="M1.3,8.9c0.9,0,0.9,1,1.7,1c0.9,0,0.9-1,1.7-1c0.9,0,0.9,1,1.8,1s0.9-1,1.8-1"/>
	<path fill="none" stroke="#272361" stroke-miterlimit="10" d="M1.3,8.9c0.9,0,0.9,1,1.7,1c0.9,0,0.9-1,1.7-1c0.9,0,0.9,1,1.8,1
		s0.9-1,1.8-1"/>
</g>
<g>
	<path fill="#FFFFFF" d="M1.3,12.1c0.9,0,0.9,1,1.7,1c0.9,0,0.9-1,1.7-1c0.9,0,0.9,1,1.8,1s0.9-1,1.8-1"/>
	<path fill="none" stroke="#272361" stroke-miterlimit="10" d="M1.3,12.1c0.9,0,0.9,1,1.7,1c0.9,0,0.9-1,1.7-1c0.9,0,0.9,1,1.8,1
		s0.9-1,1.8-1"/>
</g>
<g>
	<path fill="#FFFFFF" d="M1.3,15.6c0.9,0,0.9,1,1.7,1c0.9,0,0.9-1,1.7-1c0.9,0,0.9,1,1.8,1s0.9-1,1.8-1"/>
	<path fill="none" stroke="#272361" stroke-miterlimit="10" d="M1.3,15.6c0.9,0,0.9,1,1.7,1c0.9,0,0.9-1,1.7-1c0.9,0,0.9,1,1.8,1
		s0.9-1,1.8-1"/>
</g>
<g>
	<path fill="#FFFFFF" d="M1.3,18.9c0.9,0,0.9,1,1.7,1c0.9,0,0.9-1,1.7-1c0.9,0,0.9,1,1.8,1s0.9-1,1.8-1"/>
	<path fill="none" stroke="#272361" stroke-miterlimit="10" d="M1.3,18.9c0.9,0,0.9,1,1.7,1c0.9,0,0.9-1,1.7-1c0.9,0,0.9,1,1.8,1
		s0.9-1,1.8-1"/>
</g>
<g>
	<path fill="#FFFFFF" d="M13.7,15.6c0.9,0,0.9,1,1.7,1c0.9,0,0.9-1,1.7-1c0.9,0,0.9,1,1.8,1c0.9,0,0.9-1,1.8-1"/>
	<path fill="none" stroke="#272361" stroke-miterlimit="10" d="M13.7,15.6c0.9,0,0.9,1,1.7,1c0.9,0,0.9-1,1.7-1c0.9,0,0.9,1,1.8,1
		c0.9,0,0.9-1,1.8-1"/>
</g>
<g>
	<path fill="#FFFFFF" d="M13.7,18.9c0.9,0,0.9,1,1.7,1c0.9,0,0.9-1,1.7-1c0.9,0,0.9,1,1.8,1c0.9,0,0.9-1,1.8-1"/>
	<path fill="none" stroke="#272361" stroke-miterlimit="10" d="M13.7,18.9c0.9,0,0.9,1,1.7,1c0.9,0,0.9-1,1.7-1c0.9,0,0.9,1,1.8,1
		c0.9,0,0.9-1,1.8-1"/>
</g>
<polygon fill="#272361" points="15.7,20.5 7.9,20.5 7.9,1.8 10.8,1.8 "/>
</svg>
