<?xml version="1.0" encoding="utf-8"?>
<!-- Generator: Adobe Illustrator 18.0.0, SVG Export Plug-In . SVG Version: 6.00 Build 0)  -->
<!DOCTYPE svg PUBLIC "-//W3C//DTD SVG 1.1//EN" "http://www.w3.org/Graphics/SVG/1.1/DTD/svg11.dtd">
<svg version="1.1" id="Layer_1" xmlns="http://www.w3.org/2000/svg" xmlns:xlink="http://www.w3.org/1999/xlink" x="0px" y="0px"
	 viewBox="0 0 22 22" enable-background="new 0 0 22 22" xml:space="preserve">
<path fill="none" stroke="#3C2415" stroke-width="0.5" stroke-miterlimit="10" d="M13.7,4.7c1.4,0,3.3,0,4.7,0"/>
<rect x="0.5" y="0.5" fill="#FFFFFF" stroke="#3C2415" stroke-miterlimit="10" width="21.1" height="21"/>
<path fill="#FFFFFF" d="M5.4,6.4c0.3,0.8-0.3,1.5-0.8,1.2C4.5,7.5,4.4,7.4,4.4,7.2C4.1,6.5,4.6,5.7,5.2,6.1C5.3,6.1,5.4,6.3,5.4,6.4
	z"/>
<ellipse fill="#FFFFFF" cx="4.9" cy="6.8" rx="0.7" ry="0.8"/>
<path fill="#3C2415" stroke="#3C2415" stroke-width="0.5" stroke-miterlimit="10" d="M1.8,5.6c0,0-0.1,1.6-0.1,1.6l0,0
	c0,0,0.3,0.4,0.8,0.7c0.3,0.2,0.8,0.4,1.2,0.6C4.4,8.8,6.2,8.9,6.8,9c0.9,0.1,1.5,0,1.7,0c1.1,0,1.6,0,2,0c0.2,0,0.9-0.1,1.1-0.1
	c1.8-0.4,2.9-1.5,2.9-1.5c0,0,0-1.5,0-1.5s0,0,0-0.1c0,0-1.6,1.5-3.3,1.8c-0.1,0-0.3,0-0.4,0.1c-1,0.1-1.8,0.1-2,0.1
	c-1,0-1.8-0.1-2-0.1c0,0-0.4-0.1-0.8-0.1C4,7.1,1.8,5.6,1.8,5.6z"/>
<ellipse fill="#FFFFFF" stroke="#3C2415" stroke-width="0.5" stroke-miterlimit="10" cx="8.1" cy="5.6" rx="6.4" ry="2.2"/>
<line fill="#603913" stroke="#3C2415" stroke-width="0.5" stroke-miterlimit="10" x1="2.6" y1="7.1" x2="12.9" y2="4.1"/>
<line fill="#603913" stroke="#3C2415" stroke-width="0.5" stroke-miterlimit="10" x1="3.7" y1="4" x2="12.9" y2="7"/>
<ellipse fill="#3C2415" cx="8.2" cy="5.5" rx="1.5" ry="0.5"/>
<path fill="#FFFFFF" d="M11.5,10.7c0.3,0.8-0.3,1.5-0.8,1.2c-0.1-0.1-0.2-0.2-0.3-0.3c-0.3-0.8,0.3-1.5,0.8-1.2
	C11.4,10.5,11.5,10.6,11.5,10.7z"/>
<ellipse fill="#FFFFFF" cx="11" cy="11.1" rx="0.7" ry="0.8"/>
<path fill="#3C2415" stroke="#3C2415" stroke-width="0.5" stroke-miterlimit="10" d="M7.8,9.9c0,0-0.1,1.6-0.1,1.6l0,0
	c0,0,0.3,0.4,0.8,0.7c0.3,0.2,0.8,0.4,1.2,0.6c0.6,0.3,2.5,0.4,3.1,0.5c0.9,0.1,1.5,0,1.7,0c1.1,0,1.6,0,2,0c0.2,0,0.9-0.1,1.1-0.1
	c1.8-0.4,2.9-1.5,2.9-1.5c0,0,0-1.5,0-1.5s0,0,0-0.1c0,0-1.6,1.5-3.3,1.8c-0.1,0-0.3,0-0.4,0.1c-1,0.1-1.8,0.1-2,0.1
	c-1,0-1.8-0.1-2-0.1c0,0-0.4-0.1-0.8-0.1C10.1,11.4,7.8,9.9,7.8,9.9z"/>
<ellipse fill="#FFFFFF" stroke="#3C2415" stroke-width="0.5" stroke-miterlimit="10" cx="14.2" cy="9.9" rx="6.4" ry="2.2"/>
<line fill="#603913" stroke="#3C2415" stroke-width="0.5" stroke-miterlimit="10" x1="8.7" y1="11.4" x2="19" y2="8.4"/>
<line fill="#603913" stroke="#3C2415" stroke-width="0.5" stroke-miterlimit="10" x1="9.8" y1="8.3" x2="19" y2="11.4"/>
<ellipse fill="#3C2415" cx="14.2" cy="9.8" rx="1.5" ry="0.5"/>
<path fill="none" stroke="#3C2415" stroke-width="0.5" stroke-miterlimit="10" d="M13.6,4.4c1.4,0,3.3,0,4.7,0
	c0.1,0.6,0.2,1.3,0.3,1.9c0,0.6,0,1.1-0.2,1.7"/>
<path fill="none" stroke="#3C2415" stroke-width="0.5" stroke-miterlimit="10" d="M17.4,8"/>
<path fill="none" stroke="#3C2415" stroke-width="0.5" stroke-miterlimit="10" d="M17.3,4.4"/>
<path fill="#3C2415" stroke="#3C2415" stroke-width="0.5" stroke-miterlimit="10" d="M1.5,16.2c0,0-0.1,1.6-0.1,1.6l0,0
	c0,0,0.3,0.4,0.8,0.7c0.3,0.2,0.8,0.4,1.2,0.6c0.6,0.3,2.5,0.4,3.1,0.5c0.9,0.1,1.5,0,1.7,0c1.1,0,1.6,0,2,0c0.2,0,0.9-0.1,1.1-0.1
	c1.8-0.4,2.9-1.5,2.9-1.5c0,0,0-1.5,0-1.5s0,0,0-0.1c0,0-1.6,1.5-3.3,1.8c-0.1,0-0.3,0-0.4,0.1c-1,0.1-1.8,0.1-2,0.1
	c-1,0-1.8-0.1-2-0.1c0,0-0.4-0.1-0.8-0.1C3.7,17.6,1.5,16.2,1.5,16.2z"/>
<ellipse fill="#FFFFFF" stroke="#3C2415" stroke-width="0.5" stroke-miterlimit="10" cx="7.8" cy="16.2" rx="6.4" ry="2.2"/>
<line fill="#603913" stroke="#3C2415" stroke-width="0.5" stroke-miterlimit="10" x1="2.3" y1="17.6" x2="12.6" y2="14.7"/>
<line fill="#603913" stroke="#3C2415" stroke-width="0.5" stroke-miterlimit="10" x1="3.4" y1="14.6" x2="12.6" y2="17.6"/>
<ellipse fill="#3C2415" cx="7.9" cy="16.1" rx="1.5" ry="0.5"/>
<path fill="none" stroke="#3C2415" stroke-width="0.5" stroke-miterlimit="10" d="M8.6,11c-1.4,0-3.3,0-4.7,0
	c-0.1,0.6-0.2,1.3-0.3,1.9c0,0.6,0,1.1,0.2,1.7"/>
<path fill="none" stroke="#3C2415" stroke-width="0.5" stroke-miterlimit="10" d="M4.9,11"/>
<path fill="none" stroke="#3C2415" stroke-width="0.5" stroke-miterlimit="10" d="M14.2,4.4c1,0,2.4,0,3.4,0
	c0.1,0.6,0.2,1.3,0.2,1.9c0,0.6,0,1.1-0.1,1.7"/>
</svg>
